<svg width="61" height="61" viewBox="0 0 61 61" fill="none" xmlns="http://www.w3.org/2000/svg">
<path fill-rule="evenodd" clip-rule="evenodd" d="M40.6489 5.12652C40.4735 5.39725 40.3099 5.6754 40.1584 5.96019L39.3374 7.44198L32.1521 10.9749L31.7251 11.1859C27.5924 13.3081 24.6796 17.2935 23.8053 21.9447C23.7799 22.0718 23.757 22.2065 23.7189 22.4276L23.7163 22.4454L23.6401 22.8851C22.9566 26.6885 21.0937 30.1805 18.3153 32.8663L16.2718 34.8742C14.9908 36.1349 13.9589 37.1515 13.1862 38.0259C12.3983 38.9154 11.7629 39.7898 11.3816 40.7912C10.8787 42.1142 10.7 43.5384 10.8605 44.9446C11.021 46.3508 11.5161 47.6981 12.3043 48.8737C12.9041 49.7633 13.7225 50.4648 14.6909 51.1459C15.6389 51.8118 16.8742 52.5566 18.4017 53.4766L20.2139 54.5696C21.7415 55.4896 22.9767 56.2318 24.0061 56.7554C25.0533 57.2891 26.0547 57.6882 27.1196 57.7873C28.5169 57.9134 29.9231 57.6798 31.2045 57.1085C32.4858 56.5372 33.5996 55.6474 34.4396 54.5238C35.0852 53.6723 35.4893 52.6633 35.8325 51.5145C36.1705 50.3834 36.4958 48.9474 36.9 47.1555L37.5481 44.3063L37.6472 43.8717C38.5277 40.1192 40.5709 36.7407 43.4854 34.2184L43.5007 34.2057L43.8591 33.8855C47.3106 30.7414 49.1356 26.1232 48.8356 21.3957L48.7975 20.9077L48.1316 12.6041L49.0339 10.9724C49.1813 10.7106 49.3389 10.4234 49.4558 10.1641C49.5905 9.86927 49.7379 9.46769 49.7608 8.97715C49.7904 8.32321 49.6173 7.67609 49.2652 7.12427C49.0386 6.78039 48.7478 6.48351 48.4086 6.24994C48.159 6.07564 47.902 5.91198 47.6385 5.7594L45.567 4.51144C45.2938 4.34125 45.014 4.18185 44.7283 4.0336C44.3423 3.83262 43.9194 3.71241 43.4854 3.68031C42.7999 3.63902 42.1195 3.82093 41.5461 4.19881C41.1863 4.44369 40.8801 4.75935 40.6464 5.12652M40.621 11.0562L44.3623 13.3107L44.9926 21.1924C45.0053 21.3551 45.0155 21.4542 45.0181 21.533L42.3366 22.4251C41.5502 22.687 40.7108 22.7479 39.8948 22.6023C39.0788 22.4567 38.3123 22.1092 37.665 21.5914C36.3553 20.5436 34.7728 19.8929 33.1049 19.7164C31.4369 19.5398 29.7533 19.8447 28.2532 20.5951L28.1007 20.6714C29.1204 17.9052 31.1835 15.6487 33.8474 14.3858L40.621 11.0562Z" fill="white"/>
</svg>
